<?xml version="1.0" encoding="UTF-8" standalone="no"?>
<!-- Created with Inkscape (http://www.inkscape.org/) -->

<svg
   width="170"
   height="170"
   viewBox="0 0 170 170"
   version="1.1"
   id="SVGRoot"
   sodipodi:docname="IMBI_logo_circle.svg"
   inkscape:version="1.1.1 (3bf5ae0d25, 2021-09-20)"
   inkscape:export-filename="C:\Users\f59\Desktop\IMBI_Logo.png"
   inkscape:export-xdpi="96"
   inkscape:export-ydpi="96"
   xmlns:inkscape="http://www.inkscape.org/namespaces/inkscape"
   xmlns:sodipodi="http://sodipodi.sourceforge.net/DTD/sodipodi-0.dtd"
   xmlns="http://www.w3.org/2000/svg"
   xmlns:svg="http://www.w3.org/2000/svg">
  <defs
     id="defs455" />
  <g
     inkscape:label="Ebene 1"
     inkscape:groupmode="layer"
     id="layer1"
     transform="translate(22,55)">
    <circle
       style="fill:#ffffff;fill-opacity:1;fill-rule:evenodd"
       id="path213"
       cx="63"
       cy="30"
       r="85" />
    <path
       d="m 128.00754,6.0189308 c 0.69335,0 1.25531,-0.5619538 1.25531,-1.2553069 0,-0.6933539 -0.56196,-1.2553068 -1.25531,-1.2553068 -0.69336,0 -1.25531,0.5619529 -1.25531,1.2553068 0,0.6933531 0.56195,1.2553069 1.25531,1.2553069"
       style="fill:#566fa4;fill-opacity:1;fill-rule:nonzero;stroke:none;stroke-width:0.0378673"
       id="path14" />
    <path
       d="m 128.00754,10.203664 c 0.69335,0 1.25531,-0.5623317 1.25531,-1.2556838 0,-0.6929747 -0.56196,-1.2553076 -1.25531,-1.2553076 -0.69336,0 -1.25531,0.5623329 -1.25531,1.2553076 0,0.6933521 0.56195,1.2556838 1.25531,1.2556838"
       style="fill:#566fa4;fill-opacity:1;fill-rule:nonzero;stroke:none;stroke-width:0.0378673"
       id="path16" />
    <path
       d="m 128.00754,14.388019 c 0.69335,0 1.25531,-0.561951 1.25531,-1.255306 0,-0.693352 -0.56196,-1.255307 -1.25531,-1.255307 -0.69336,0 -1.25531,0.561955 -1.25531,1.255307 0,0.693355 0.56195,1.255306 1.25531,1.255306"
       style="fill:#566fa4;fill-opacity:1;fill-rule:nonzero;stroke:none;stroke-width:0.0378673"
       id="path18" />
    <path
       d="m 128.00754,18.572754 c 0.69335,0 1.25531,-0.562328 1.25531,-1.255683 0,-0.693355 -0.56196,-1.255306 -1.25531,-1.255306 -0.69336,0 -1.25531,0.561951 -1.25531,1.255306 0,0.693355 0.56195,1.255683 1.25531,1.255683"
       style="fill:#566fa4;fill-opacity:1;fill-rule:nonzero;stroke:none;stroke-width:0.0378673"
       id="path20" />
    <path
       d="m 128.00754,22.757112 c 0.69335,0 1.25531,-0.56195 1.25531,-1.255305 0,-0.693355 -0.56196,-1.255314 -1.25531,-1.255314 -0.69336,0 -1.25531,0.561959 -1.25531,1.255314 0,0.693355 0.56195,1.255305 1.25531,1.255305"
       style="fill:#566fa4;fill-opacity:1;fill-rule:nonzero;stroke:none;stroke-width:0.0378673"
       id="path22" />
    <path
       d="m 128.00754,26.941472 c 0.69335,0 1.25531,-0.561959 1.25531,-1.255314 0,-0.693356 -0.56196,-1.255307 -1.25531,-1.255307 -0.69336,0 -1.25531,0.561951 -1.25531,1.255307 0,0.693355 0.56195,1.255314 1.25531,1.255314"
       style="fill:#566fa4;fill-opacity:1;fill-rule:nonzero;stroke:none;stroke-width:0.0378673"
       id="path24" />
    <path
       d="m 128.00754,31.126199 c 0.69335,0 1.25531,-0.56195 1.25531,-1.255306 0,-0.693347 -0.56196,-1.255306 -1.25531,-1.255306 -0.69336,0 -1.25531,0.561959 -1.25531,1.255306 0,0.693356 0.56195,1.255306 1.25531,1.255306"
       style="fill:#566fa4;fill-opacity:1;fill-rule:nonzero;stroke:none;stroke-width:0.0378673"
       id="path26" />
    <path
       d="m 128.00754,35.310558 c 0.69335,0 1.25531,-0.561951 1.25531,-1.255306 0,-0.693356 -0.56196,-1.255307 -1.25531,-1.255307 -0.69336,0 -1.25531,0.561951 -1.25531,1.255307 0,0.693355 0.56195,1.255306 1.25531,1.255306"
       style="fill:#566fa4;fill-opacity:1;fill-rule:nonzero;stroke:none;stroke-width:0.0378673"
       id="path28" />
    <path
       d="m 128.00754,39.495293 c 0.69335,0 1.25531,-0.56195 1.25531,-1.255306 0,-0.693355 -0.56196,-1.255306 -1.25531,-1.255306 -0.69336,0 -1.25531,0.561951 -1.25531,1.255306 0,0.693356 0.56195,1.255306 1.25531,1.255306"
       style="fill:#566fa4;fill-opacity:1;fill-rule:nonzero;stroke:none;stroke-width:0.0378673"
       id="path30" />
    <path
       d="m 128.00754,43.679652 c 0.69335,0 1.25531,-0.561959 1.25531,-1.255306 0,-0.693356 -0.56196,-1.255314 -1.25531,-1.255314 -0.69336,0 -1.25531,0.561958 -1.25531,1.255314 0,0.693347 0.56195,1.255306 1.25531,1.255306"
       style="fill:#566fa4;fill-opacity:1;fill-rule:nonzero;stroke:none;stroke-width:0.0378673"
       id="path32" />
    <path
       d="m 128.00754,47.86438 c 0.69335,0 1.25531,-0.561951 1.25531,-1.255306 0,-0.693348 -0.56196,-1.255683 -1.25531,-1.255683 -0.69336,0 -1.25531,0.562335 -1.25531,1.255683 0,0.693355 0.56195,1.255306 1.25531,1.255306"
       style="fill:#566fa4;fill-opacity:1;fill-rule:nonzero;stroke:none;stroke-width:0.0378673"
       id="path34" />
    <path
       d="m 128.00754,52.048738 c 0.69335,0 1.25531,-0.561951 1.25531,-1.255306 0,-0.693355 -0.56196,-1.255306 -1.25531,-1.255306 -0.69336,0 -1.25531,0.561951 -1.25531,1.255306 0,0.693355 0.56195,1.255306 1.25531,1.255306"
       style="fill:#566fa4;fill-opacity:1;fill-rule:nonzero;stroke:none;stroke-width:0.0378673"
       id="path36" />
    <path
       d="m 128.00754,56.233474 c 0.69335,0 1.25531,-0.562335 1.25531,-1.255306 0,-0.693355 -0.56196,-1.255683 -1.25531,-1.255683 -0.69336,0 -1.25531,0.562328 -1.25531,1.255683 0,0.692971 0.56195,1.255306 1.25531,1.255306"
       style="fill:#566fa4;fill-opacity:1;fill-rule:nonzero;stroke:none;stroke-width:0.0378673"
       id="path38" />
    <path
       d="m 83.233031,50.793432 c 0,-0.693355 -0.561951,-1.255306 -1.255307,-1.255306 -0.693347,0 -1.255305,0.561951 -1.255305,1.255306 0,0.693355 0.561958,1.255306 1.255305,1.255306 0.693356,0 1.255307,-0.561951 1.255307,-1.255306"
       style="fill:#566fa4;fill-opacity:1;fill-rule:nonzero;stroke:none;stroke-width:0.0378673"
       id="path40" />
    <path
       d="m 87.417766,50.793432 c 0,-0.693355 -0.561951,-1.255306 -1.255306,-1.255306 -0.693355,0 -1.255306,0.561951 -1.255306,1.255306 0,0.693355 0.561951,1.255306 1.255306,1.255306 0.693355,0 1.255306,-0.561951 1.255306,-1.255306"
       style="fill:#566fa4;fill-opacity:1;fill-rule:nonzero;stroke:none;stroke-width:0.0378673"
       id="path42" />
    <path
       d="m 91.602125,50.793432 c 0,-0.693355 -0.561951,-1.255306 -1.255307,-1.255306 -0.693355,0 -1.255305,0.561951 -1.255305,1.255306 0,0.693355 0.56195,1.255306 1.255305,1.255306 0.693356,0 1.255307,-0.561951 1.255307,-1.255306"
       style="fill:#566fa4;fill-opacity:1;fill-rule:nonzero;stroke:none;stroke-width:0.0378673"
       id="path44" />
    <path
       d="m 95.78686,50.793432 c 0,-0.693355 -0.561951,-1.255306 -1.255306,-1.255306 -0.693355,0 -1.25569,0.561951 -1.25569,1.255306 0,0.693355 0.562335,1.255306 1.25569,1.255306 0.693355,0 1.255306,-0.561951 1.255306,-1.255306"
       style="fill:#566fa4;fill-opacity:1;fill-rule:nonzero;stroke:none;stroke-width:0.0378673"
       id="path46" />
    <path
       d="m 99.971214,50.793432 c 0,-0.693355 -0.56195,-1.255306 -1.255305,-1.255306 -0.693364,0 -1.255311,0.561951 -1.255311,1.255306 0,0.693355 0.561947,1.255306 1.255311,1.255306 0.693355,0 1.255305,-0.561951 1.255305,-1.255306"
       style="fill:#566fa4;fill-opacity:1;fill-rule:nonzero;stroke:none;stroke-width:0.0378673"
       id="path48" />
    <path
       d="m 104.15595,50.793432 c 0,-0.693355 -0.56233,-1.255306 -1.25531,-1.255306 -0.69336,0 -1.25568,0.561951 -1.25568,1.255306 0,0.693355 0.56232,1.255306 1.25568,1.255306 0.69298,0 1.25531,-0.561951 1.25531,-1.255306"
       style="fill:#566fa4;fill-opacity:1;fill-rule:nonzero;stroke:none;stroke-width:0.0378673"
       id="path50" />
    <path
       d="m 108.34031,50.793432 c 0,-0.693355 -0.56196,-1.255306 -1.25531,-1.255306 -0.69335,0 -1.25531,0.561951 -1.25531,1.255306 0,0.693355 0.56196,1.255306 1.25531,1.255306 0.69335,0 1.25531,-0.561951 1.25531,-1.255306"
       style="fill:#566fa4;fill-opacity:1;fill-rule:nonzero;stroke:none;stroke-width:0.0378673"
       id="path52" />
    <path
       d="m 112.52504,50.793432 c 0,-0.693355 -0.56234,-1.255306 -1.25568,-1.255306 -0.69298,0 -1.25532,0.561951 -1.25532,1.255306 0,0.693355 0.56234,1.255306 1.25532,1.255306 0.69334,0 1.25568,-0.561951 1.25568,-1.255306"
       style="fill:#566fa4;fill-opacity:1;fill-rule:nonzero;stroke:none;stroke-width:0.0378673"
       id="path54" />
    <path
       d="m 116.7094,50.793432 c 0,-0.693355 -0.56196,-1.255306 -1.25531,-1.255306 -0.69335,0 -1.25531,0.561951 -1.25531,1.255306 0,0.693355 0.56196,1.255306 1.25531,1.255306 0.69335,0 1.25531,-0.561951 1.25531,-1.255306"
       style="fill:#566fa4;fill-opacity:1;fill-rule:nonzero;stroke:none;stroke-width:0.0378673"
       id="path56" />
    <path
       d="m 120.89374,50.793432 c 0,-0.693355 -0.56194,-1.255306 -1.2553,-1.255306 -0.69335,0 -1.25531,0.561951 -1.25531,1.255306 0,0.693355 0.56196,1.255306 1.25531,1.255306 0.69336,0 1.2553,-0.561951 1.2553,-1.255306"
       style="fill:#566fa4;fill-opacity:1;fill-rule:nonzero;stroke:none;stroke-width:0.0378673"
       id="path58" />
    <path
       d="m 125.07848,50.793432 c 0,-0.693355 -0.56194,-1.255306 -1.25531,-1.255306 -0.69335,0 -1.2553,0.561951 -1.2553,1.255306 0,0.693355 0.56195,1.255306 1.2553,1.255306 0.69337,0 1.25531,-0.561951 1.25531,-1.255306"
       style="fill:#566fa4;fill-opacity:1;fill-rule:nonzero;stroke:none;stroke-width:0.0378673"
       id="path60" />
    <path
       d="m 132.19227,52.048738 c 0.69335,0 1.2553,-0.561951 1.2553,-1.255306 0,-0.693355 -0.56195,-1.255306 -1.2553,-1.255306 -0.69335,0 -1.25531,0.561951 -1.25531,1.255306 0,0.693355 0.56196,1.255306 1.25531,1.255306"
       style="fill:#566fa4;fill-opacity:1;fill-rule:nonzero;stroke:none;stroke-width:0.0378673"
       id="path62" />
    <path
       d="m 79.04868,50.793432 c 0,-0.693355 -0.561959,-1.255306 -1.255306,-1.255306 -0.693356,0 -1.255307,0.561951 -1.255307,1.255306 0,0.693355 0.561951,1.255306 1.255307,1.255306 0.693347,0 1.255306,-0.561951 1.255306,-1.255306"
       style="fill:#566fa4;fill-opacity:1;fill-rule:nonzero;stroke:none;stroke-width:0.0378673"
       id="path64" />
    <path
       d="m 74.863944,50.793432 c 0,-0.693355 -0.561955,-1.255306 -1.255308,-1.255306 -0.693353,0 -1.255307,0.561951 -1.255307,1.255306 0,0.693355 0.561954,1.255306 1.255307,1.255306 0.693353,0 1.255308,-0.561951 1.255308,-1.255306"
       style="fill:#566fa4;fill-opacity:1;fill-rule:nonzero;stroke:none;stroke-width:0.0378673"
       id="path66" />
    <path
       d="m 70.679588,50.793432 c 0,-0.693355 -0.561955,-1.255306 -1.255307,-1.255306 -0.693355,0 -1.255307,0.561951 -1.255307,1.255306 0,0.693355 0.561952,1.255306 1.255307,1.255306 0.693352,0 1.255307,-0.561951 1.255307,-1.255306"
       style="fill:#566fa4;fill-opacity:1;fill-rule:nonzero;stroke:none;stroke-width:0.0378673"
       id="path68" />
    <path
       d="m 66.494853,50.793432 c 0,-0.693355 -0.561955,-1.255306 -1.255308,-1.255306 -0.693352,0 -1.255307,0.561951 -1.255307,1.255306 0,0.693355 0.561955,1.255306 1.255307,1.255306 0.693353,0 1.255308,-0.561951 1.255308,-1.255306"
       style="fill:#566fa4;fill-opacity:1;fill-rule:nonzero;stroke:none;stroke-width:0.0378673"
       id="path70" />
    <path
       d="m 62.310498,50.793432 c 0,-0.693355 -0.561955,-1.255306 -1.255307,-1.255306 -0.693355,0 -1.255307,0.561951 -1.255307,1.255306 0,0.693355 0.561952,1.255306 1.255307,1.255306 0.693352,0 1.255307,-0.561951 1.255307,-1.255306"
       style="fill:#566fa4;fill-opacity:1;fill-rule:nonzero;stroke:none;stroke-width:0.0378673"
       id="path72" />
    <path
       d="m 58.12614,50.793432 c 0,-0.693355 -0.562333,-1.255306 -1.255685,-1.255306 -0.692976,0 -1.255307,0.561951 -1.255307,1.255306 0,0.693355 0.562331,1.255306 1.255307,1.255306 0.693352,0 1.255685,-0.561951 1.255685,-1.255306"
       style="fill:#566fa4;fill-opacity:1;fill-rule:nonzero;stroke:none;stroke-width:0.0378673"
       id="path74" />
    <path
       d="m 53.941406,50.793432 c 0,-0.693355 -0.561953,-1.255306 -1.255307,-1.255306 -0.693353,0 -1.255307,0.561951 -1.255307,1.255306 0,0.693355 0.561954,1.255306 1.255307,1.255306 0.693354,0 1.255307,-0.561951 1.255307,-1.255306"
       style="fill:#566fa4;fill-opacity:1;fill-rule:nonzero;stroke:none;stroke-width:0.0378673"
       id="path76" />
    <path
       d="m 49.75705,50.793432 c 0,-0.693355 -0.562332,-1.255306 -1.255306,-1.255306 -0.693355,0 -1.255687,0.561951 -1.255687,1.255306 0,0.693355 0.562332,1.255306 1.255687,1.255306 0.692974,0 1.255306,-0.561951 1.255306,-1.255306"
       style="fill:#566fa4;fill-opacity:1;fill-rule:nonzero;stroke:none;stroke-width:0.0378673"
       id="path78" />
    <path
       d="m 45.572316,50.793432 c 0,-0.693355 -0.561953,-1.255306 -1.255307,-1.255306 -0.693353,0 -1.255307,0.561951 -1.255307,1.255306 0,0.693355 0.561954,1.255306 1.255307,1.255306 0.693354,0 1.255307,-0.561951 1.255307,-1.255306"
       style="fill:#566fa4;fill-opacity:1;fill-rule:nonzero;stroke:none;stroke-width:0.0378673"
       id="path80" />
    <path
       d="m 41.38796,50.793432 c 0,-0.693355 -0.561953,-1.255306 -1.255306,-1.255306 -0.693355,0 -1.255687,0.561951 -1.255687,1.255306 0,0.693355 0.562332,1.255306 1.255687,1.255306 0.693353,0 1.255306,-0.561951 1.255306,-1.255306"
       style="fill:#566fa4;fill-opacity:1;fill-rule:nonzero;stroke:none;stroke-width:0.0378673"
       id="path82" />
    <path
       d="m 37.203225,50.793432 c 0,-0.693355 -0.561953,-1.255306 -1.255306,-1.255306 -0.693353,0 -1.255307,0.561951 -1.255307,1.255306 0,0.693355 0.561954,1.255306 1.255307,1.255306 0.693353,0 1.255306,-0.561951 1.255306,-1.255306"
       style="fill:#566fa4;fill-opacity:1;fill-rule:nonzero;stroke:none;stroke-width:0.0378673"
       id="path84" />
    <path
       d="m 33.018869,50.793432 c 0,-0.693355 -0.561953,-1.255306 -1.255307,-1.255306 -0.693353,0 -1.255306,0.561951 -1.255306,1.255306 0,0.693355 0.561953,1.255306 1.255306,1.255306 0.693354,0 1.255307,-0.561951 1.255307,-1.255306"
       style="fill:#566fa4;fill-opacity:1;fill-rule:nonzero;stroke:none;stroke-width:0.0378673"
       id="path86" />
    <path
       d="m 28.834135,50.793432 c 0,-0.693355 -0.561953,-1.255306 -1.255306,-1.255306 -0.693354,0 -1.255308,0.561951 -1.255308,1.255306 0,0.693355 0.561954,1.255306 1.255308,1.255306 0.693353,0 1.255306,-0.561951 1.255306,-1.255306"
       style="fill:#566fa4;fill-opacity:1;fill-rule:nonzero;stroke:none;stroke-width:0.0378673"
       id="path88" />
    <path
       d="m 24.649779,50.793432 c 0,-0.693355 -0.561953,-1.255306 -1.255307,-1.255306 -0.693353,0 -1.255307,0.561951 -1.255307,1.255306 0,0.693355 0.561954,1.255306 1.255307,1.255306 0.693354,0 1.255307,-0.561951 1.255307,-1.255306"
       style="fill:#566fa4;fill-opacity:1;fill-rule:nonzero;stroke:none;stroke-width:0.0378673"
       id="path90" />
    <path
       d="m 20.465044,50.793432 c 0,-0.693355 -0.561953,-1.255306 -1.255306,-1.255306 -0.693353,0 -1.255307,0.561951 -1.255307,1.255306 0,0.693355 0.561954,1.255306 1.255307,1.255306 0.693353,0 1.255306,-0.561951 1.255306,-1.255306"
       style="fill:#566fa4;fill-opacity:1;fill-rule:nonzero;stroke:none;stroke-width:0.0378673"
       id="path92" />
    <path
       d="m 16.280688,50.793432 c 0,-0.693355 -0.561953,-1.255306 -1.255307,-1.255306 -0.693353,0 -1.255306,0.561951 -1.255306,1.255306 0,0.693355 0.561953,1.255306 1.255306,1.255306 0.693354,0 1.255307,-0.561951 1.255307,-1.255306"
       style="fill:#566fa4;fill-opacity:1;fill-rule:nonzero;stroke:none;stroke-width:0.0378673"
       id="path94" />
    <path
       d="m 12.096332,50.793432 c 0,-0.693355 -0.562331,-1.255306 -1.255685,-1.255306 -0.693353,0 -1.2553069,0.561951 -1.2553069,1.255306 0,0.693355 0.5619539,1.255306 1.2553069,1.255306 0.693354,0 1.255685,-0.561951 1.255685,-1.255306"
       style="fill:#566fa4;fill-opacity:1;fill-rule:nonzero;stroke:none;stroke-width:0.0378673"
       id="path96" />
    <path
       d="m 7.9115985,50.793432 c 0,-0.693355 -0.5619535,-1.255306 -1.2553066,-1.255306 -0.6933539,0 -1.2553068,0.561951 -1.2553068,1.255306 0,0.693355 0.5619529,1.255306 1.2553068,1.255306 0.6933531,0 1.2553066,-0.561951 1.2553066,-1.255306"
       style="fill:#566fa4;fill-opacity:1;fill-rule:nonzero;stroke:none;stroke-width:0.0378673"
       id="path98" />
    <path
       d="m 3.7272424,50.793432 c 0,-0.693355 -0.5623321,-1.255306 -1.2556852,-1.255306 -0.6929747,0 -1.2553068,0.561951 -1.2553068,1.255306 0,0.693355 0.5623321,1.255306 1.2553068,1.255306 0.6933531,0 1.2556852,-0.561951 1.2556852,-1.255306"
       style="fill:#566fa4;fill-opacity:1;fill-rule:nonzero;stroke:none;stroke-width:0.0378673"
       id="path100" />
    <path
       d="M 8.6632676,13.402331 H 1.6346862 v 29.800192 h 7.0285814 z m 44.9532354,7.067964 c 1.161774,0 2.054689,0.397229 2.678365,1.19055 0.6233,0.793704 0.935329,1.771442 0.935329,2.933213 v 18.608465 h 6.815765 V 21.61806 c 0,-2.380729 -0.346488,-4.059398 -1.877091,-5.873625 -1.530601,-1.813475 -3.734869,-2.302342 -5.775546,-2.302342 h -14.23817 v 7.028202 z m -21.384898,0 c 0.963347,0 1.771062,0.368827 2.423518,1.105351 0.651699,0.737277 0.977738,1.644206 0.977738,2.721155 v 18.905722 h 6.815767 V 13.442093 H 20.600231 v 7.028202 z M 13.865122,13.442093 v 29.76043 h 7.028582 v -29.76043 z m 84.37025,7.772294 c 0.750522,0.637689 1.126552,1.452598 1.126552,2.444348 v 9.751637 c 0,0.935323 -0.36883,1.665409 -1.10535,2.18949 -0.73728,0.524843 -1.672598,0.786891 -2.805979,0.786891 H 76.676663 v 6.81577 H 96.61199 c 2.833634,0 5.22912,-0.736908 7.18498,-2.211086 1.95547,-1.473425 2.51477,-3.258873 2.51477,-5.356736 V 22.468562 c 0,-2.465929 -0.0492,-3.888994 -1.81991,-5.944434 -1.77181,-2.054693 -4.0397,-3.082035 -5.966769,-3.082035 H 76.676663 v 6.815767 h 18.773932 c 1.105347,0 2.033485,0.318844 2.784777,0.956527 z M 68.878609,7.9285884 V 33.636434 c 0,2.664359 0.856943,5.343484 2.57234,7.199748 1.714638,1.856642 2.996073,2.366341 5.51918,2.366341 V 7.9285884 Z m 49.301561,5.4737426 h -7.0282 v 29.800192 h 7.0282 V 13.402331"
       style="fill:#113e74;fill-opacity:1;fill-rule:nonzero;stroke:none;stroke-width:0.0378673"
       id="path102" />
    <path
       d="M 1.6346862,7.9285884 V 11.462001 H 8.6253998 V 7.9285884 H 1.6346862"
       style="fill:#113e74;fill-opacity:1;fill-rule:nonzero;stroke:none;stroke-width:0.0378673"
       id="path104" />
    <path
       d="m 111.18945,7.9285884 v 3.5334126 h 6.99072 V 7.9285884 h -6.99072"
       style="fill:#113e74;fill-opacity:1;fill-rule:nonzero;stroke:none;stroke-width:0.0378673"
       id="path112" />
  </g>
  <sodipodi:namedview
     id="namedview460"
     pagecolor="#ffffff"
     bordercolor="#666666"
     borderopacity="1.0"
     inkscape:pageshadow="2"
     inkscape:pageopacity="0.0"
     inkscape:pagecheckerboard="true"
     inkscape:document-units="px"
     showgrid="false"
     inkscape:zoom="1.8101934"
     inkscape:cx="41.155825"
     inkscape:cy="72.644174"
     inkscape:window-width="1280"
     inkscape:window-height="961"
     inkscape:window-x="-8"
     inkscape:window-y="-8"
     inkscape:window-maximized="1"
     inkscape:current-layer="layer1"
     height="154px"
     fit-margin-top="0"
     fit-margin-left="0"
     fit-margin-right="0"
     fit-margin-bottom="0" />
</svg>
